<?xml version="1.0" encoding="utf-8"?>
<!-- Generator: Adobe Illustrator 21.0.1, SVG Export Plug-In . SVG Version: 6.00 Build 0)  -->
<svg version="1.1" id="RioTz_2_Build_copy_7" xmlns="http://www.w3.org/2000/svg" xmlns:xlink="http://www.w3.org/1999/xlink"
	 x="0px" y="0px" viewBox="0 0 813.5 250.8" style="enable-background:new 0 0 813.5 250.8;" xml:space="preserve">
<style type="text/css">
	.st0{fill:#FFFFFF;}
</style>
<g>
	<polygon class="st0" points="241.5,156.1 299,247.7 299,77.5 241.5,77.5 	"/>
	<polygon class="st0" points="592,77.5 592,135.1 660,135.1 587.4,250.8 726.3,250.8 762,193.2 691.5,193.2 764.1,77.5 	"/>
	<polygon class="st0" points="406.8,215.8 493.6,77.5 320,77.5 	"/>
	<polygon class="st0" points="319,0 319,57.5 514.5,57.5 514.5,247.8 572.1,156.1 572,57.5 777.4,57.5 813.5,0 	"/>
	<polygon class="st0" points="153.3,135.1 221.5,135.1 221.5,0 0,0 36.2,57.5 167.3,57.5 167.3,77.5 49.2,77.5 158,250.8 226,250.8 
			"/>
	<rect x="241.5" class="st0" width="57.5" height="57.5"/>
</g>
</svg>
